<svg width="800" height="1000" viewBox="0 0 800 1000" fill="none" xmlns="http://www.w3.org/2000/svg">
  <rect width="800" height="1000" rx="36" fill="url(#bg)"/>
  <circle cx="650" cy="140" r="150" fill="#FFFFFF" fill-opacity="0.2"/>
  <circle cx="140" cy="860" r="180" fill="#FFFFFF" fill-opacity="0.18"/>
  <path d="M403 190C496 190 566 269 566 365V445C566 565 494 712 400 712C306 712 234 565 234 445V365C234 269 310 190 403 190Z" fill="#2D1032"/>
  <path d="M238 356C238 246 325 166 436 166C519 166 586 240 586 332C586 427 530 487 507 568C486 639 430 700 400 700C370 700 315 639 293 568C271 496 238 431 238 356Z" fill="#43134F"/>
  <path d="M302 408C302 360 339 324 385 324H417C463 324 500 360 500 408V564C500 618 456 662 402 662C346 662 302 618 302 564V408Z" fill="#F6C4E3"/>
  <path d="M302 412C302 359 346 316 399 316C453 316 496 359 496 412V505H302V412Z" fill="#FFDDF0"/>
  <rect x="230" y="734" width="340" height="136" rx="68" fill="#FFFFFF" fill-opacity="0.88"/>
  <text x="400" y="798" text-anchor="middle" font-family="Arial, sans-serif" font-size="38" font-weight="700" fill="#671A83">Knotless Braids</text>
  <text x="400" y="844" text-anchor="middle" font-family="Arial, sans-serif" font-size="24" fill="#8B5AA0">Placeholder Photo</text>
  <defs>
    <linearGradient id="bg" x1="72" y1="71" x2="721" y2="961" gradientUnits="userSpaceOnUse">
      <stop stop-color="#FF9CC7"/>
      <stop offset="0.55" stop-color="#B850DC"/>
      <stop offset="1" stop-color="#6B1C8F"/>
    </linearGradient>
  </defs>
</svg>
