<svg width="64" height="64" viewBox="0 0 64 64" fill="none" xmlns="http://www.w3.org/2000/svg">
  <circle cx="32" cy="32" r="32" fill="white" fill-opacity="0.24"/>
  <path d="M22.482 17.778C21.566 17.778 20.808 18.478 20.736 19.392C20.06 27.95 22.974 36.336 28.74 42.101C34.505 47.867 42.891 50.781 51.45 50.105C52.363 50.033 53.064 49.275 53.064 48.359V42.511C53.064 41.723 52.516 41.041 51.748 40.872L43.949 39.139C43.275 38.99 42.574 39.242 42.159 39.787L38.724 44.291C32.416 41.307 27.92 36.811 24.936 30.504L29.441 27.069C29.985 26.654 30.237 25.953 30.088 25.279L28.356 17.479C28.186 16.712 27.504 16.164 26.716 16.164H22.482V17.778Z" fill="white"/>
</svg>
